<svg id="Layer_1" enable-background="new 0 0 512 512" viewBox="0 0 512 512" xmlns="http://www.w3.org/2000/svg"><g><g><g><path d="m288.06 76.459c.107-.597.363-1.152.363-1.792 0-2.752-1.024-5.248-2.731-7.125l-19.029-38.059v-18.816c0-5.888-4.779-10.667-10.667-10.667s-10.667 4.779-10.667 10.667v18.816l-20.203 40.427c-.043.085-.021.192-.064.277-.64 1.365-1.067 2.88-1.067 4.501 0 34.603-2.496 66.368-6.741 96h77.461c-4.137-29.12-6.569-60.331-6.655-94.229z"/><path d="m445.991 495.104-12.373-17.088c-20.544-28.309-42.56-59.115-63.232-94.016h13.611c5.888 0 10.667-4.779 10.667-10.667s-4.779-10.667-10.667-10.667h-245.334c-5.888 0-10.667 4.779-10.667 10.667s4.779 10.667 10.667 10.667h2.923c-20.651 34.923-42.688 65.707-63.232 94.016l-12.374 17.088c-2.325 3.243-2.645 7.552-.832 11.115s5.504 5.781 9.515 5.781h85.909c3.029 0 5.909-1.301 7.957-3.541 2.027-2.261 2.987-5.269 2.667-8.299-.363-3.115-.533-6.293-.533-9.493 0-47.061 38.272-85.333 85.333-85.333s85.333 38.272 85.333 85.333c0 3.2-.171 6.379-.512 9.493-.341 3.029.64 6.016 2.667 8.299 2.027 2.24 4.907 3.541 7.957 3.541h85.909c4.011 0 7.659-2.219 9.493-5.781 1.836-3.563 1.495-7.872-.852-11.115z"/><path d="m216.316 341.333 18.901-56.704c1.451-4.352 5.525-7.296 10.112-7.296h21.333c4.587 0 8.661 2.944 10.112 7.296l18.901 56.704h51.307c-18.219-37.013-33.557-79.381-44.181-128h6.507c5.888 0 10.667-4.779 10.667-10.667s-4.779-10.666-10.667-10.666h-106.645c-5.888 0-10.667 4.779-10.667 10.667s4.779 10.667 10.667 10.667h6.507c-10.603 48.619-25.963 90.987-44.181 128h51.327z"/></g></g></g><g/><g/><g/><g/><g/><g/><g/><g/><g/><g/><g/><g/><g/><g/><g/></svg>