<svg id="Capa_1" enable-background="new 0 0 512 512" height="512" viewBox="0 0 512 512" width="512" xmlns="http://www.w3.org/2000/svg"><g><path d="m497 481.002h-21.729l-40.854-81.708c-2.541-5.082-7.735-8.292-13.417-8.292h-97.365l-60.515-180.6-28.44 9.51 57.322 171.09h-146.164l-121.073-87.172c-6.724-4.841-16.098-3.315-20.938 3.408-4.841 6.723-3.314 16.097 3.408 20.938l116.139 83.62-22.3 69.207h-86.074c-8.284 0-15 6.716-15 15s6.716 15 15 15h482c8.284 0 15-6.716 15-15s-6.716-15.001-15-15.001zm-85.271-60 30 60h-87.937l-20.105-60zm-259.803 0h150.127l20.103 60h-189.563z"/><path d="m196.554 58.681c-29.182 9.756-38.563 91.365-13.352 146.807l112.313-37.545c-13.162-59.318-69.739-119.031-98.961-109.262z"/><path d="m68.64 243.782 85.98-28.74c-29.437-68.242-20.364-185.807 47.37-187.39 52.671-1.273 108.179 73.116 122.08 130.74l86-28.74c8.96-3 12.97-13.46 8.26-21.68-46.89-81.89-137.21-103.29-216.97-82.21l-4.85-14.52c-2.62-7.85-11.12-12.09-18.98-9.47-7.86 2.63-12.1 11.13-9.47 18.99l4.85 14.5c-76.4 31.11-135.7 102.5-123.91 196.17 1.19 9.43 10.7 15.33 19.64 12.35z"/></g></svg>