<svg id="Layer_1" enable-background="new 0 0 510.002 510.002" height="512" viewBox="0 0 510.002 510.002" width="512" xmlns="http://www.w3.org/2000/svg"><path d="m312.708 480.002-15.893-95.357c15.02-3.928 29.407-9.961 42.82-17.966 5.893 17.507 22.51 30.603 42.646 30.603 51.282-.969 61.793-70.997 14.402-87.645 8.188-13.711 14.396-28.632 18.338-44.329 29.284 14.956 65.297-7.279 64.98-40.306.318-33.001-35.659-55.245-64.935-40.328-3.904-15.611-10.079-30.518-18.357-44.316 17.581-5.932 30.571-22.601 30.571-42.635-.95-51.212-70.921-61.842-87.635-14.429-13.8-8.277-28.705-14.452-44.316-18.357 14.914-29.282-7.324-65.252-40.329-64.935-33-.318-55.244 35.659-40.327 64.935-15.611 3.904-30.518 10.079-44.316 18.356-5.932-17.58-22.601-30.57-42.635-30.57-51.214.951-61.84 70.922-14.429 87.635-8.277 13.799-14.452 28.705-18.356 44.316-29.283-14.913-65.252 7.323-64.935 40.329-.319 33.022 35.702 55.266 64.98 40.305 3.942 15.697 10.15 30.618 18.338 44.329-17.543 5.908-30.598 22.549-30.598 42.645 1.126 51.374 70.838 61.812 87.646 14.398 13.388 7.989 27.769 14.029 42.82 17.965l-15.893 95.357h-197.294v30h510v-30zm-163.194-170.726c-15.702-19.661-25.829-43.586-28.683-69.274h91.75c.532 1.5 1.136 2.967 1.817 4.39zm146.089-64.885c.682-1.423 1.285-2.89 1.817-4.39h91.75c-2.854 25.689-12.98 49.613-28.683 69.274zm-55.602-34.389h30v15c-.826 19.904-29.182 19.889-30 0zm60 0v-8.787l60.476-60.476c16.015 19.96 25.9 43.823 28.695 69.263zm-21.213-30h-8.787v-89.172c25.44 2.795 49.301 12.682 69.263 28.696zm-38.787 0h-8.787l-60.476-60.476c19.96-16.015 43.822-25.901 69.263-28.696zm-30 21.213v8.787h-89.172c2.795-25.439 12.682-49.301 28.696-69.263zm81.854 153.679-14.366-86.191 61.788 61.788c-13.759 10.987-29.721 19.388-47.422 24.403zm101.032-13.219v.001c5.862 5.859 5.862 15.35 0 21.212-14.178 13.236-34.258-5.781-21.729-20.642.389-.387.781-.771 1.167-1.16 5.947-5.305 14.945-5.028 20.562.589zm42.114-131.673c8.272 0 15 6.729 15 15-.823 19.9-29.18 19.894-30 0 0-8.272 6.728-15 15-15zm-52.721-127.28c13.214-.105 20.037 16.317 10.606 25.605v.001c-5.862 5.862-15.35 5.864-21.213-.001-9.419-9.267-2.629-25.703 10.607-25.605zm-142.279-37.72c0-8.271 6.729-15 15-15 19.9.823 19.894 29.18 0 30-8.272 0-15-6.729-15-15zm-112.279 37.72c4.007 0 7.773 1.561 10.606 4.394h.001c5.861 5.861 5.863 15.351-.001 21.213-5.86 5.862-15.35 5.864-21.212-.001-9.421-9.27-2.629-25.705 10.606-25.606zm-52.721 157.28c-8.271 0-15-6.729-15-15 .823-19.9 29.18-19.894 30 0 0 8.271-6.729 15-15 15zm63.327 122.886c-9.292 9.431-25.711 2.606-25.606-10.607-.11-12.813 15.484-19.801 24.951-11.199.39.392.785.781 1.179 1.17 5.393 5.971 5.093 15.017-.524 20.636zm32.397-32.396 61.788-61.789-14.366 86.191c-17.733-5.024-33.692-13.437-47.422-24.402zm84.276-14.24 27.293 163.75h-54.586z"/></svg>